<mxfile host="Electron" modified="2023-11-15T01:52:39.137Z" agent="Mozilla/5.0 (X11; Linux x86_64) AppleWebKit/537.36 (KHTML, like Gecko) draw.io/22.0.3 Chrome/114.0.5735.289 Electron/25.8.4 Safari/537.36" etag="MJE5OoPiAQ69MANGZP0d" version="22.0.3" type="device" pages="2">
  <diagram name="Page-1" id="zUEsUFCCqbTCGkq8hycR">
    <mxGraphModel dx="1805" dy="1834" grid="1" gridSize="10" guides="1" tooltips="1" connect="1" arrows="1" fold="1" page="1" pageScale="1" pageWidth="850" pageHeight="1100" math="0" shadow="0">
      <root>
        <mxCell id="0" />
        <mxCell id="1" parent="0" />
        <mxCell id="mpVofLy9S_VtIkMl0M2r-1" value="Youtube" style="ellipse;shape=cloud;whiteSpace=wrap;html=1;" parent="1" vertex="1">
          <mxGeometry x="170" y="50" width="290" height="180" as="geometry" />
        </mxCell>
        <mxCell id="mpVofLy9S_VtIkMl0M2r-2" value="Connects to youtube&amp;nbsp;&lt;br&gt;-? proxy&lt;br&gt;-unauth requests" style="shape=process;whiteSpace=wrap;html=1;backgroundOutline=1;" parent="1" vertex="1">
          <mxGeometry x="-220" y="390" width="190" height="120" as="geometry" />
        </mxCell>
        <mxCell id="mpVofLy9S_VtIkMl0M2r-9" style="edgeStyle=orthogonalEdgeStyle;rounded=0;orthogonalLoop=1;jettySize=auto;html=1;entryX=0.5;entryY=1;entryDx=0;entryDy=0;" parent="1" source="mpVofLy9S_VtIkMl0M2r-3" target="mpVofLy9S_VtIkMl0M2r-8" edge="1">
          <mxGeometry relative="1" as="geometry" />
        </mxCell>
        <mxCell id="mpVofLy9S_VtIkMl0M2r-3" value="User" style="shape=umlActor;verticalLabelPosition=bottom;verticalAlign=top;html=1;outlineConnect=0;" parent="1" vertex="1">
          <mxGeometry x="390" y="730" width="90" height="140" as="geometry" />
        </mxCell>
        <mxCell id="mpVofLy9S_VtIkMl0M2r-12" style="edgeStyle=orthogonalEdgeStyle;rounded=0;orthogonalLoop=1;jettySize=auto;html=1;entryX=0.5;entryY=1;entryDx=0;entryDy=0;" parent="1" source="mpVofLy9S_VtIkMl0M2r-5" target="mpVofLy9S_VtIkMl0M2r-2" edge="1">
          <mxGeometry relative="1" as="geometry" />
        </mxCell>
        <mxCell id="mpVofLy9S_VtIkMl0M2r-5" value="Server hosting the bot&lt;br&gt;Running crontab regularly" style="shape=cube;whiteSpace=wrap;html=1;boundedLbl=1;backgroundOutline=1;darkOpacity=0.05;darkOpacity2=0.1;" parent="1" vertex="1">
          <mxGeometry x="10" y="590" width="170" height="110" as="geometry" />
        </mxCell>
        <mxCell id="mpVofLy9S_VtIkMl0M2r-8" value="Saves tracks to playlist on Youtube" style="shape=process;whiteSpace=wrap;html=1;backgroundOutline=1;" parent="1" vertex="1">
          <mxGeometry x="500" y="380" width="410" height="180" as="geometry" />
        </mxCell>
        <mxCell id="mpVofLy9S_VtIkMl0M2r-10" style="edgeStyle=orthogonalEdgeStyle;rounded=0;orthogonalLoop=1;jettySize=auto;html=1;entryX=0.875;entryY=0.5;entryDx=0;entryDy=0;entryPerimeter=0;" parent="1" target="mpVofLy9S_VtIkMl0M2r-1" edge="1">
          <mxGeometry relative="1" as="geometry">
            <mxPoint x="706.2500000000005" y="380" as="sourcePoint" />
            <mxPoint x="460" y="140" as="targetPoint" />
            <Array as="points">
              <mxPoint x="706" y="140" />
            </Array>
          </mxGeometry>
        </mxCell>
        <mxCell id="mpVofLy9S_VtIkMl0M2r-13" style="edgeStyle=orthogonalEdgeStyle;rounded=0;orthogonalLoop=1;jettySize=auto;html=1;entryX=0.049;entryY=0.454;entryDx=0;entryDy=0;entryPerimeter=0;" parent="1" source="mpVofLy9S_VtIkMl0M2r-2" target="mpVofLy9S_VtIkMl0M2r-1" edge="1">
          <mxGeometry relative="1" as="geometry">
            <Array as="points">
              <mxPoint x="-110" y="132" />
            </Array>
          </mxGeometry>
        </mxCell>
        <mxCell id="mpVofLy9S_VtIkMl0M2r-15" value="" style="edgeStyle=orthogonalEdgeStyle;rounded=0;orthogonalLoop=1;jettySize=auto;html=1;" parent="1" source="mpVofLy9S_VtIkMl0M2r-14" target="mpVofLy9S_VtIkMl0M2r-5" edge="1">
          <mxGeometry relative="1" as="geometry" />
        </mxCell>
        <mxCell id="mpVofLy9S_VtIkMl0M2r-14" value="Sharing it locally with user local network" style="shape=process;whiteSpace=wrap;html=1;backgroundOutline=1;" parent="1" vertex="1">
          <mxGeometry x="15" y="800" width="165" height="100" as="geometry" />
        </mxCell>
      </root>
    </mxGraphModel>
  </diagram>
  <diagram id="1L_bnhIHawUqAPKSuRXo" name="core">
    <mxGraphModel dx="626" dy="1167" grid="1" gridSize="10" guides="1" tooltips="1" connect="1" arrows="1" fold="1" page="1" pageScale="1" pageWidth="850" pageHeight="1100" math="0" shadow="0">
      <root>
        <mxCell id="0" />
        <mxCell id="1" parent="0" />
        <mxCell id="gPxB5ofH1kE1W2RImTQe-1" value="Core Feature" style="swimlane;fontStyle=0;childLayout=stackLayout;horizontal=1;startSize=30;horizontalStack=0;resizeParent=1;resizeParentMax=0;resizeLast=0;collapsible=1;marginBottom=0;whiteSpace=wrap;html=1;" parent="1" vertex="1">
          <mxGeometry x="10" y="60" width="140" height="150" as="geometry" />
        </mxCell>
        <mxCell id="gPxB5ofH1kE1W2RImTQe-2" value="get all audio from playlist&amp;nbsp;" style="text;strokeColor=none;fillColor=none;align=left;verticalAlign=middle;spacingLeft=4;spacingRight=4;overflow=hidden;points=[[0,0.5],[1,0.5]];portConstraint=eastwest;rotatable=0;whiteSpace=wrap;html=1;" parent="gPxB5ofH1kE1W2RImTQe-1" vertex="1">
          <mxGeometry y="30" width="140" height="30" as="geometry" />
        </mxCell>
        <mxCell id="gPxB5ofH1kE1W2RImTQe-14" value="work with crontab to execute weekly" style="text;strokeColor=none;fillColor=none;align=left;verticalAlign=middle;spacingLeft=4;spacingRight=4;overflow=hidden;points=[[0,0.5],[1,0.5]];portConstraint=eastwest;rotatable=0;whiteSpace=wrap;html=1;" parent="gPxB5ofH1kE1W2RImTQe-1" vertex="1">
          <mxGeometry y="60" width="140" height="50" as="geometry" />
        </mxCell>
        <mxCell id="gPxB5ofH1kE1W2RImTQe-3" value="Keep log with all errors and info" style="text;strokeColor=none;fillColor=none;align=left;verticalAlign=middle;spacingLeft=4;spacingRight=4;overflow=hidden;points=[[0,0.5],[1,0.5]];portConstraint=eastwest;rotatable=0;whiteSpace=wrap;html=1;" parent="gPxB5ofH1kE1W2RImTQe-1" vertex="1">
          <mxGeometry y="110" width="140" height="40" as="geometry" />
        </mxCell>
        <mxCell id="gPxB5ofH1kE1W2RImTQe-9" value="" style="edgeStyle=orthogonalEdgeStyle;rounded=0;orthogonalLoop=1;jettySize=auto;html=1;" parent="1" source="gPxB5ofH1kE1W2RImTQe-6" target="gPxB5ofH1kE1W2RImTQe-8" edge="1">
          <mxGeometry relative="1" as="geometry" />
        </mxCell>
        <mxCell id="gPxB5ofH1kE1W2RImTQe-6" value="imports" style="shape=process;whiteSpace=wrap;html=1;backgroundOutline=1;" parent="1" vertex="1">
          <mxGeometry x="350" y="200" width="120" height="60" as="geometry" />
        </mxCell>
        <mxCell id="gPxB5ofH1kE1W2RImTQe-11" value="" style="edgeStyle=orthogonalEdgeStyle;rounded=0;orthogonalLoop=1;jettySize=auto;html=1;entryX=0.45;entryY=0.088;entryDx=0;entryDy=0;entryPerimeter=0;" parent="1" source="gPxB5ofH1kE1W2RImTQe-8" target="gPxB5ofH1kE1W2RImTQe-16" edge="1">
          <mxGeometry relative="1" as="geometry">
            <mxPoint x="410" y="480" as="targetPoint" />
          </mxGeometry>
        </mxCell>
        <mxCell id="gPxB5ofH1kE1W2RImTQe-8" value="Intantiate Youtube playlist with url" style="shape=process;whiteSpace=wrap;html=1;backgroundOutline=1;" parent="1" vertex="1">
          <mxGeometry x="350" y="340" width="120" height="60" as="geometry" />
        </mxCell>
        <mxCell id="gPxB5ofH1kE1W2RImTQe-13" value="" style="edgeStyle=orthogonalEdgeStyle;rounded=0;orthogonalLoop=1;jettySize=auto;html=1;" parent="1" source="gPxB5ofH1kE1W2RImTQe-12" target="gPxB5ofH1kE1W2RImTQe-6" edge="1">
          <mxGeometry relative="1" as="geometry" />
        </mxCell>
        <mxCell id="gPxB5ofH1kE1W2RImTQe-12" value="Start" style="rounded=1;whiteSpace=wrap;html=1;arcSize=50;" parent="1" vertex="1">
          <mxGeometry x="350" y="40" width="120" height="60" as="geometry" />
        </mxCell>
        <mxCell id="gPxB5ofH1kE1W2RImTQe-20" value="" style="edgeStyle=orthogonalEdgeStyle;rounded=0;orthogonalLoop=1;jettySize=auto;html=1;" parent="1" source="gPxB5ofH1kE1W2RImTQe-16" target="gPxB5ofH1kE1W2RImTQe-19" edge="1">
          <mxGeometry relative="1" as="geometry" />
        </mxCell>
        <mxCell id="gPxB5ofH1kE1W2RImTQe-22" style="edgeStyle=orthogonalEdgeStyle;rounded=0;orthogonalLoop=1;jettySize=auto;html=1;" parent="1" source="gPxB5ofH1kE1W2RImTQe-16" target="gPxB5ofH1kE1W2RImTQe-23" edge="1">
          <mxGeometry relative="1" as="geometry">
            <mxPoint x="170" y="1040" as="targetPoint" />
          </mxGeometry>
        </mxCell>
        <mxCell id="gPxB5ofH1kE1W2RImTQe-16" value="for video in playlist.videos" style="rhombus;whiteSpace=wrap;html=1;" parent="1" vertex="1">
          <mxGeometry x="320" y="500" width="190" height="150" as="geometry" />
        </mxCell>
        <mxCell id="gPxB5ofH1kE1W2RImTQe-21" style="edgeStyle=orthogonalEdgeStyle;rounded=0;orthogonalLoop=1;jettySize=auto;html=1;entryX=1;entryY=0.5;entryDx=0;entryDy=0;exitX=1;exitY=0.56;exitDx=0;exitDy=0;exitPerimeter=0;" parent="1" source="gPxB5ofH1kE1W2RImTQe-19" target="gPxB5ofH1kE1W2RImTQe-16" edge="1">
          <mxGeometry relative="1" as="geometry">
            <Array as="points">
              <mxPoint x="580" y="824" />
              <mxPoint x="580" y="575" />
            </Array>
          </mxGeometry>
        </mxCell>
        <mxCell id="gPxB5ofH1kE1W2RImTQe-19" value="filter most relevant stram and download" style="shape=process;whiteSpace=wrap;html=1;backgroundOutline=1;" parent="1" vertex="1">
          <mxGeometry x="312.5" y="740" width="205" height="150" as="geometry" />
        </mxCell>
        <mxCell id="gPxB5ofH1kE1W2RImTQe-25" value="" style="edgeStyle=orthogonalEdgeStyle;rounded=0;orthogonalLoop=1;jettySize=auto;html=1;" parent="1" source="gPxB5ofH1kE1W2RImTQe-23" target="gPxB5ofH1kE1W2RImTQe-24" edge="1">
          <mxGeometry relative="1" as="geometry" />
        </mxCell>
        <mxCell id="gPxB5ofH1kE1W2RImTQe-23" value="Create playlist folder" style="shape=process;whiteSpace=wrap;html=1;backgroundOutline=1;" parent="1" vertex="1">
          <mxGeometry x="50" y="920" width="210" height="140" as="geometry" />
        </mxCell>
        <mxCell id="gPxB5ofH1kE1W2RImTQe-26" style="edgeStyle=orthogonalEdgeStyle;rounded=0;orthogonalLoop=1;jettySize=auto;html=1;entryX=0.5;entryY=0;entryDx=0;entryDy=0;" parent="1" source="gPxB5ofH1kE1W2RImTQe-24" target="gPxB5ofH1kE1W2RImTQe-27" edge="1">
          <mxGeometry relative="1" as="geometry">
            <mxPoint x="460" y="1321" as="targetPoint" />
          </mxGeometry>
        </mxCell>
        <mxCell id="gPxB5ofH1kE1W2RImTQe-24" value="put all files in there" style="shape=process;whiteSpace=wrap;html=1;backgroundOutline=1;" parent="1" vertex="1">
          <mxGeometry x="50" y="1140" width="210" height="140" as="geometry" />
        </mxCell>
        <mxCell id="gPxB5ofH1kE1W2RImTQe-27" value="End" style="rounded=1;whiteSpace=wrap;html=1;arcSize=50;" parent="1" vertex="1">
          <mxGeometry x="400" y="1330" width="170" height="110" as="geometry" />
        </mxCell>
      </root>
    </mxGraphModel>
  </diagram>
</mxfile>
